# xmcd CD database file
#
# Track frame offsets:
#	150
#	13665
#	22337
#	43052
#	56612
#	78800
#	93195
#	114202
#	134292
#	146527
#	158745
#	173237
#	185510
#	199037
#	211795
#	228425
#
# Disc length: 3211 seconds
#
# Revision: 0
# Processed by: cddbd v1.4PL0 Copyright (c) Steve Scherf et al.
# Submitted via: CDex 1.51
#
DISCID=ce0c8910
DTITLE=Dizzy Gillespie - Night and Day
DYEAR=1996
DGENRE=Jazz
TTITLE0=Algo Bueno
TTITLE1=Jealousie
TTITLE2=Cool Breeze
TTITLE3=The Man I Love
TTITLE4=Soulphony In Three Hearts
TTITLE5=My Old Flame
TTITLE6=One Bass Hit
TTITLE7=Blue Moon
TTITLE8=I Can't Get Started
TTITLE9=Blue And Sentimental
TTITLE10=Stay On It
TTITLE11=All The Things You Are
TTITLE12=Night And Day
TTITLE13=Ool Ya Koo
TTITLE14=Groovin' High
TTITLE15=Good Bait
EXTD=YEAR: 1996
EXTT0=
EXTT1=
EXTT2=
EXTT3=
EXTT4=
EXTT5=
EXTT6=
EXTT7=
EXTT8=
EXTT9=
EXTT10=
EXTT11=
EXTT12=
EXTT13=
EXTT14=
EXTT15=
PLAYORDER=
